HIERARCHY
ROOT Hips
{
 OFFSET 0.000000 0.000000 0.000000
 CHANNELS 6 Xposition Yposition Zposition Yrotation Xrotation Zrotation
 JOINT Chest
 {
  OFFSET 0.000000 11.395451 -0.039534
  CHANNELS 3 Yrotation Xrotation Zrotation
  JOINT Chest2
  {
   OFFSET 0.000000 9.398669 0.071813
   CHANNELS 3 Yrotation Xrotation Zrotation
   JOINT Chest3
   {
    OFFSET 0.000000 8.489801 0.000000
    CHANNELS 3 Yrotation Xrotation Zrotation
    JOINT Chest4
    {
     OFFSET 0.000000 8.489801 0.000000
     CHANNELS 3 Yrotation Xrotation Zrotation
     JOINT Neck
     {
      OFFSET 0.000000 12.404889 0.000000
      CHANNELS 3 Yrotation Xrotation Zrotation
      JOINT Head
      {
       OFFSET 0.000000 8.903270 0.092239
       CHANNELS 3 Yrotation Xrotation Zrotation
       End Site
       {
        OFFSET 0.000000 17.592497 0.007158
       }
      }
     }
     JOINT RightCollar
     {
      OFFSET -3.196775 6.966722 0.000000
      CHANNELS 3 Yrotation Xrotation Zrotation
      JOINT RightShoulder
      {
       OFFSET -15.955896 0.000000 0.000000
       CHANNELS 3 Yrotation Xrotation Zrotation
       JOINT RightElbow
       {
        OFFSET -24.792472 0.000000 0.000000
        CHANNELS 3 Yrotation Xrotation Zrotation
        JOINT RightWrist
        {
         OFFSET -20.900115 0.000000 0.025002
         CHANNELS 3 Yrotation Xrotation Zrotation
         End Site
         {
          OFFSET -16.056692 0.000000 0.000000
         }
        }
       }
      }
     }
     JOINT LeftCollar
     {
      OFFSET 3.196775 6.966722 0.000000
      CHANNELS 3 Yrotation Xrotation Zrotation
      JOINT LeftShoulder
      {
       OFFSET 15.955896 0.000000 0.000000
       CHANNELS 3 Yrotation Xrotation Zrotation
       JOINT LeftElbow
       {
        OFFSET 24.792472 0.000000 0.000000
        CHANNELS 3 Yrotation Xrotation Zrotation
        JOINT LeftWrist
        {
         OFFSET 20.900115 0.000000 0.025002
         CHANNELS 3 Yrotation Xrotation Zrotation
         End Site
         {
          OFFSET 16.056692 0.000000 0.000000
         }
        }
       }
      }
     }
    }
   }
  }
 }
 JOINT RightHip
 {
  OFFSET -9.568995 0.193718 0.019767
  CHANNELS 3 Yrotation Xrotation Zrotation
  JOINT RightKnee
  {
   OFFSET 0.000000 -56.649296 0.015402
   CHANNELS 3 Yrotation Xrotation Zrotation
   JOINT RightAnkle
   {
    OFFSET 0.000000 -41.365147 0.021264
    CHANNELS 3 Yrotation Xrotation Zrotation
    JOINT RightToe
    {
     OFFSET 0.000000 -7.465940 17.672538
     CHANNELS 3 Yrotation Xrotation Zrotation
     End Site
     {
      OFFSET 0.000000 -1.736315 7.837145
     }
    }
   }
  }
 }
 JOINT LeftHip
 {
  OFFSET 9.568995 0.193718 0.019767
  CHANNELS 3 Yrotation Xrotation Zrotation
  JOINT LeftKnee
  {
   OFFSET 0.000000 -56.649296 0.015402
   CHANNELS 3 Yrotation Xrotation Zrotation
   JOINT LeftAnkle
   {
    OFFSET 0.000000 -41.365147 0.021264
    CHANNELS 3 Yrotation Xrotation Zrotation
    JOINT LeftToe
    {
     OFFSET 0.000000 -7.465940 17.672538
     CHANNELS 3 Yrotation Xrotation Zrotation
     End Site
     {
      OFFSET 0.000000 -1.736315 7.837145
     }
    }
   }
  }
 }
}
MOTION
Frames: 11
Frame Time: 0.016667
-21.341584 106.892110 192.032464 -63.758062 -4.624445 -1.371230 -2.092101 6.716019 -0.432372 -0.921910 2.986819 -0.161498 -0.921910 2.986819 -0.161498 -0.690486 2.240364 -0.116587 -4.312307 14.969025 0.744217 -8.359348 -8.212352 3.024293 3.495141 2.744844 7.765080 6.050295 -11.270767 74.791546 10.537094 7.192511 6.045566 -3.201633 -2.578082 3.778547 -2.802396 8.450020 -5.144519 -0.112701 -20.537281 -76.771360 -0.741236 3.015907 -4.969241 4.035045 -5.523183 -6.500632 0.092624 6.631213 -0.845332 1.942022 4.021778 -0.258740 7.365527 -4.710468 2.153943 0.007885 -1.651257 -0.547184 -3.419964 7.990588 -3.440771 -1.385797 0.396906 -0.064659 1.505863 -6.118994 1.745186 -0.000000 -0.000000 -0.000000
-21.423322 106.873586 191.886654 -63.485042 -4.586180 -1.334781 -2.064016 6.690680 -0.422390 -0.909626 2.975492 -0.157592 -0.909624 2.975495 -0.157592 -0.681295 2.231863 -0.113736 -4.352672 14.981177 0.709759 -8.421160 -8.189841 2.974057 3.494335 2.754345 7.714617 6.003564 -11.253449 74.911075 10.473284 7.182340 6.018605 -3.243760 -2.577360 3.715749 -2.751648 8.455786 -5.252566 -0.140114 -20.382987 -76.710093 -0.794394 3.318490 -4.900835 3.917414 -5.453042 -6.426645 0.259875 6.780866 -0.786830 1.731579 3.718102 -0.198576 7.161695 -4.697803 2.058929 0.007331 -1.519418 -0.552879 -3.346514 7.941086 -3.427815 -1.714521 0.429605 0.039144 1.508148 -6.121229 1.664506 -0.000000 -0.000000 -0.000000
-21.505061 106.855062 191.740844 -63.212012 -4.548087 -1.298152 -2.035921 6.665317 -0.412560 -0.897339 2.964150 -0.153751 -0.897338 2.964152 -0.153751 -0.672106 2.223347 -0.110932 -4.393015 14.993505 0.675351 -8.482932 -8.166997 2.923881 3.493547 2.764145 7.664212 5.956945 -11.236699 75.030702 10.409417 7.171980 5.991947 -3.286198 -2.576830 3.653165 -2.700850 8.462279 -5.360541 -0.167307 -20.229037 -76.647872 -0.847770 3.620883 -4.832068 3.799683 -5.383086 -6.352797 0.427286 6.930231 -0.727242 1.521331 3.413917 -0.139041 6.958104 -4.685439 1.963388 0.006763 -1.387577 -0.558501 -3.273066 7.891578 -3.415208 -2.043263 0.462140 0.142760 1.510449 -6.123447 1.583824 0.000000 0.000000 0.000000
-21.576649 106.840475 191.603277 -62.920753 -4.512200 -1.260468 -2.012107 6.643325 -0.397020 -0.887029 2.954286 -0.147297 -0.887029 2.954286 -0.147297 -0.664412 2.215934 -0.106157 -4.431952 15.004718 0.641491 -8.542347 -8.146283 2.874282 3.499535 2.772167 7.617225 5.907618 -11.214061 75.131042 10.288632 7.176412 5.942100 -3.330882 -2.568598 3.596385 -2.647951 8.467127 -5.468521 -0.198783 -20.085758 -76.591328 -0.985530 3.790142 -4.821031 3.676841 -5.350497 -6.270950 0.532766 7.071558 -0.682906 1.334832 3.121278 -0.076210 6.771760 -4.661870 1.887762 0.006436 -1.270194 -0.580631 -3.200060 7.836603 -3.398547 -2.359752 0.505364 0.240805 1.483947 -6.121927 1.504353 0.000000 0.000000 0.000000
-21.633287 106.831446 191.479309 -62.600552 -4.480246 -1.219565 -1.994284 6.626458 -0.373482 -0.879481 2.946674 -0.137184 -0.879481 2.946674 -0.137184 -0.658804 2.210208 -0.098622 -4.470872 15.014180 0.607531 -8.601808 -8.128841 2.824620 3.516253 2.775472 7.575586 5.850189 -11.179084 75.200593 10.086135 7.212462 5.862621 -3.377325 -2.547508 3.546223 -2.590191 8.467210 -5.578512 -0.233164 -19.957559 -76.542005 -1.248291 3.736988 -4.904505 3.545912 -5.376343 -6.172071 0.533694 7.207970 -0.668392 1.186133 2.831763 -0.002760 6.617415 -4.611380 1.846068 0.006542 -1.180199 -0.632869 -3.121473 7.775390 -3.376874 -2.668019 0.563883 0.333657 1.416176 -6.114152 1.423720 0.000000 -0.000000 -0.000000
-21.679775 106.826354 191.363584 -62.262124 -4.450570 -1.177613 -1.980739 6.612820 -0.344172 -0.873906 2.940477 -0.124433 -0.873906 2.940478 -0.124433 -0.654687 2.205542 -0.089097 -4.508404 15.022522 0.574116 -8.658949 -8.113527 2.775543 3.539735 2.776985 7.537320 5.789973 -11.137928 75.251047 9.826116 7.262342 5.760818 -3.426044 -2.518833 3.501802 -2.530361 8.465806 -5.688590 -0.272004 -19.839905 -76.498499 -1.593699 3.550088 -5.047744 3.408790 -5.438461 -6.065873 0.472449 7.336572 -0.669566 1.060954 2.554006 0.074152 6.480033 -4.549590 1.824498 0.006817 -1.104644 -0.701663 -3.043337 7.708614 -3.351328 -2.964057 0.632867 0.420944 1.319539 -6.102852 1.344313 0.000000 0.000000 0.000000
-21.720364 106.824265 191.248280 -61.919391 -4.420083 -1.140226 -1.970622 6.600285 -0.309999 -0.869919 2.934754 -0.109470 -0.869919 2.934754 -0.109470 -0.651771 2.201227 -0.077904 -4.539021 15.030334 0.543689 -8.704308 -8.099421 2.729507 3.564849 2.783415 7.499987 5.740230 -11.103046 75.297760 9.525200 7.288763 5.634321 -3.480391 -2.490318 3.466208 -2.474772 8.470058 -5.792891 -0.324255 -19.729558 -76.463150 -1.982348 3.363695 -5.202708 3.268308 -5.509230 -5.972442 0.414491 7.440593 -0.659888 0.940420 2.325682 0.136768 6.331960 -4.511998 1.801813 0.006785 -1.019175 -0.762855 -2.984185 7.632899 -3.320692 -3.223551 0.708991 0.496183 1.202520 -6.092237 1.274487 0.000000 0.000000 0.000000
-21.755009 106.826374 191.128991 -61.575417 -4.382822 -1.112066 -1.962462 6.587892 -0.268900 -0.866897 2.929068 -0.091405 -0.866897 2.929068 -0.091405 -0.649593 2.196936 -0.064381 -4.559862 15.034965 0.517364 -8.733113 -8.091543 2.687728 3.590817 2.798278 7.462773 5.709670 -11.079614 75.343226 9.179463 7.272785 5.479367 -3.540944 -2.466050 3.440908 -2.426360 8.485115 -5.887882 -0.395644 -19.627839 -76.440918 -2.417474 3.208512 -5.354493 3.120325 -5.586733 -5.895253 0.385212 7.506592 -0.626362 0.832399 2.164382 0.177745 6.147746 -4.515412 1.771907 0.006183 -0.907624 -0.808522 -2.943025 7.540622 -3.278256 -3.429639 0.792753 0.552809 1.050571 -6.083603 1.222270 -0.000000 0.000000 0.000000
-21.783756 106.831488 191.010124 -61.227149 -4.344645 -1.088413 -1.957723 6.576487 -0.222917 -0.865459 2.923804 -0.071119 -0.865458 2.923805 -0.071119 -0.648612 2.192960 -0.049184 -4.573797 15.039025 0.494006 -8.750150 -8.084954 2.648961 3.618384 2.818053 7.426610 5.689589 -11.062439 75.384795 8.792956 7.232151 5.301044 -3.606893 -2.441801 3.424410 -2.382249 8.505634 -5.976965 -0.480510 -19.533142 -76.427102 -2.896025 3.053326 -5.518010 2.969416 -5.672921 -5.830296 0.359346 7.547808 -0.582377 0.729122 2.052606 0.204574 5.952969 -4.543029 1.741014 0.005250 -0.786163 -0.846558 -2.920898 7.439207 -3.230883 -3.599221 0.883733 0.597629 0.878261 -6.075731 1.179644 -0.000000 -0.000000 -0.000000
-21.810991 106.835092 190.897072 -60.879328 -4.320206 -1.060928 -1.959972 6.566747 -0.179112 -0.867087 2.919291 -0.051693 -0.867087 2.919291 -0.051693 -0.649927 2.189546 -0.034617 -4.583878 15.050972 0.472761 -8.760302 -8.063829 2.612102 3.644715 2.838875 7.391704 5.667184 -11.048586 75.429986 8.394524 7.185056 5.109728 -3.679441 -2.412757 3.415381 -2.339987 8.522909 -6.064676 -0.570643 -19.437890 -76.409580 -3.370955 2.940166 -5.690215 2.832679 -5.746807 -5.786281 0.326455 7.587512 -0.540792 0.588391 1.975323 0.221950 5.796615 -4.579894 1.706448 0.004303 -0.678958 -0.876549 -2.939316 7.348007 -3.197405 -3.758610 0.977334 0.644104 0.737778 -6.068889 1.130882 -0.000000 0.000000 0.000000
-21.838048 106.835309 190.791204 -60.527304 -4.315182 -1.026833 -1.972960 6.560219 -0.139520 -0.873417 2.916224 -0.033971 -0.873417 2.916223 -0.033971 -0.654760 2.187220 -0.021302 -4.588519 15.073076 0.453707 -8.760479 -8.024055 2.576532 3.670144 2.858590 7.357936 5.644922 -11.038000 75.482595 7.981884 7.132378 4.898941 -3.764069 -2.373917 3.417769 -2.298333 8.530398 -6.151679 -0.661269 -19.336643 -76.381806 -3.841467 2.897487 -5.880296 2.719907 -5.799990 -5.772608 0.267818 7.630399 -0.504849 0.384598 1.937222 0.226553 5.712621 -4.623631 1.666426 0.003488 -0.596108 -0.896111 -3.021787 7.271192 -3.187026 -3.914552 1.076574 0.699891 0.656636 -6.064033 1.067053 0.000000 0.000000 0.000000
